<mxfile host="app.diagrams.net" modified="2023-06-27T00:46:21.103Z" agent="Mozilla/5.0 (Windows NT 10.0; Win64; x64) AppleWebKit/537.36 (KHTML, like Gecko) Chrome/113.0.0.0 Safari/537.36 OPR/99.0.0.0" etag="3dTQZHc0HErUfTslXZgW" version="21.5.0" type="github">
  <diagram name="Page-1" id="2YBvvXClWsGukQMizWep">
    <mxGraphModel dx="1860" dy="550" grid="1" gridSize="10" guides="1" tooltips="1" connect="0" arrows="1" fold="1" page="1" pageScale="1" pageWidth="850" pageHeight="1100" math="0" shadow="0">
      <root>
        <mxCell id="0" />
        <mxCell id="1" parent="0" />
        <mxCell id="aM9ryv3xv72pqoxQDRHE-1" value="Page de connexion" style="shape=umlLifeline;perimeter=lifelinePerimeter;whiteSpace=wrap;html=1;container=0;dropTarget=0;collapsible=0;recursiveResize=0;outlineConnect=0;portConstraint=eastwest;newEdgeStyle={&quot;edgeStyle&quot;:&quot;elbowEdgeStyle&quot;,&quot;elbow&quot;:&quot;vertical&quot;,&quot;curved&quot;:0,&quot;rounded&quot;:0};" parent="1" vertex="1">
          <mxGeometry x="-20" y="40" width="100" height="680" as="geometry" />
        </mxCell>
        <mxCell id="aM9ryv3xv72pqoxQDRHE-2" value="" style="html=1;points=[];perimeter=orthogonalPerimeter;outlineConnect=0;targetShapes=umlLifeline;portConstraint=eastwest;newEdgeStyle={&quot;edgeStyle&quot;:&quot;elbowEdgeStyle&quot;,&quot;elbow&quot;:&quot;vertical&quot;,&quot;curved&quot;:0,&quot;rounded&quot;:0};" parent="aM9ryv3xv72pqoxQDRHE-1" vertex="1">
          <mxGeometry x="45" y="60" width="10" height="40" as="geometry" />
        </mxCell>
        <mxCell id="aM9ryv3xv72pqoxQDRHE-4" value="" style="html=1;points=[];perimeter=orthogonalPerimeter;outlineConnect=0;targetShapes=umlLifeline;portConstraint=eastwest;newEdgeStyle={&quot;edgeStyle&quot;:&quot;elbowEdgeStyle&quot;,&quot;elbow&quot;:&quot;vertical&quot;,&quot;curved&quot;:0,&quot;rounded&quot;:0};" parent="aM9ryv3xv72pqoxQDRHE-1" vertex="1">
          <mxGeometry x="45" y="160" width="10" height="40" as="geometry" />
        </mxCell>
        <mxCell id="aM9ryv3xv72pqoxQDRHE-7" value="ajout et sauvegarde des données" style="html=1;verticalAlign=bottom;endArrow=block;edgeStyle=elbowEdgeStyle;elbow=vertical;curved=0;rounded=0;" parent="1" source="aM9ryv3xv72pqoxQDRHE-2" target="EvG-SNMMHzA-SjEUgjpf-15" edge="1">
          <mxGeometry x="0.0009" relative="1" as="geometry">
            <mxPoint x="195" y="130" as="sourcePoint" />
            <Array as="points">
              <mxPoint x="180" y="120" />
            </Array>
            <mxPoint x="265" y="120" as="targetPoint" />
            <mxPoint as="offset" />
          </mxGeometry>
        </mxCell>
        <mxCell id="aM9ryv3xv72pqoxQDRHE-9" value="inscription réussie" style="html=1;verticalAlign=bottom;endArrow=block;edgeStyle=elbowEdgeStyle;elbow=vertical;curved=0;rounded=0;" parent="1" source="EvG-SNMMHzA-SjEUgjpf-11" edge="1">
          <mxGeometry x="-0.001" relative="1" as="geometry">
            <mxPoint x="265" y="160" as="sourcePoint" />
            <Array as="points">
              <mxPoint x="190" y="160" />
            </Array>
            <mxPoint x="-90" y="160" as="targetPoint" />
            <mxPoint as="offset" />
          </mxGeometry>
        </mxCell>
        <mxCell id="EvG-SNMMHzA-SjEUgjpf-5" value="Page client" style="shape=umlLifeline;perimeter=lifelinePerimeter;whiteSpace=wrap;html=1;container=0;dropTarget=0;collapsible=0;recursiveResize=0;outlineConnect=0;portConstraint=eastwest;newEdgeStyle={&quot;edgeStyle&quot;:&quot;elbowEdgeStyle&quot;,&quot;elbow&quot;:&quot;vertical&quot;,&quot;curved&quot;:0,&quot;rounded&quot;:0};" vertex="1" parent="1">
          <mxGeometry x="220" y="40" width="100" height="800" as="geometry" />
        </mxCell>
        <mxCell id="EvG-SNMMHzA-SjEUgjpf-42" value="" style="html=1;points=[];perimeter=orthogonalPerimeter;outlineConnect=0;targetShapes=umlLifeline;portConstraint=eastwest;newEdgeStyle={&quot;edgeStyle&quot;:&quot;elbowEdgeStyle&quot;,&quot;elbow&quot;:&quot;vertical&quot;,&quot;curved&quot;:0,&quot;rounded&quot;:0};" vertex="1" parent="EvG-SNMMHzA-SjEUgjpf-5">
          <mxGeometry x="39.5" y="300" width="10" height="170" as="geometry" />
        </mxCell>
        <mxCell id="EvG-SNMMHzA-SjEUgjpf-35" value="" style="html=1;points=[];perimeter=orthogonalPerimeter;outlineConnect=0;targetShapes=umlLifeline;portConstraint=eastwest;newEdgeStyle={&quot;edgeStyle&quot;:&quot;elbowEdgeStyle&quot;,&quot;elbow&quot;:&quot;vertical&quot;,&quot;curved&quot;:0,&quot;rounded&quot;:0};" vertex="1" parent="EvG-SNMMHzA-SjEUgjpf-5">
          <mxGeometry x="45" y="500" width="10" height="60" as="geometry" />
        </mxCell>
        <mxCell id="EvG-SNMMHzA-SjEUgjpf-11" value="backend" style="shape=umlLifeline;perimeter=lifelinePerimeter;whiteSpace=wrap;html=1;container=0;dropTarget=0;collapsible=0;recursiveResize=0;outlineConnect=0;portConstraint=eastwest;newEdgeStyle={&quot;edgeStyle&quot;:&quot;elbowEdgeStyle&quot;,&quot;elbow&quot;:&quot;vertical&quot;,&quot;curved&quot;:0,&quot;rounded&quot;:0};" vertex="1" parent="1">
          <mxGeometry x="425" y="40" width="100" height="790" as="geometry" />
        </mxCell>
        <mxCell id="EvG-SNMMHzA-SjEUgjpf-12" value="" style="html=1;points=[];perimeter=orthogonalPerimeter;outlineConnect=0;targetShapes=umlLifeline;portConstraint=eastwest;newEdgeStyle={&quot;edgeStyle&quot;:&quot;elbowEdgeStyle&quot;,&quot;elbow&quot;:&quot;vertical&quot;,&quot;curved&quot;:0,&quot;rounded&quot;:0};" vertex="1" parent="EvG-SNMMHzA-SjEUgjpf-11">
          <mxGeometry x="45" y="220" width="10" height="40" as="geometry" />
        </mxCell>
        <mxCell id="EvG-SNMMHzA-SjEUgjpf-14" value="" style="html=1;points=[];perimeter=orthogonalPerimeter;outlineConnect=0;targetShapes=umlLifeline;portConstraint=eastwest;newEdgeStyle={&quot;edgeStyle&quot;:&quot;elbowEdgeStyle&quot;,&quot;elbow&quot;:&quot;vertical&quot;,&quot;curved&quot;:0,&quot;rounded&quot;:0};" vertex="1" parent="EvG-SNMMHzA-SjEUgjpf-11">
          <mxGeometry x="45" y="100" width="10" height="50" as="geometry" />
        </mxCell>
        <mxCell id="EvG-SNMMHzA-SjEUgjpf-49" value="" style="html=1;points=[];perimeter=orthogonalPerimeter;outlineConnect=0;targetShapes=umlLifeline;portConstraint=eastwest;newEdgeStyle={&quot;edgeStyle&quot;:&quot;elbowEdgeStyle&quot;,&quot;elbow&quot;:&quot;vertical&quot;,&quot;curved&quot;:0,&quot;rounded&quot;:0};" vertex="1" parent="EvG-SNMMHzA-SjEUgjpf-11">
          <mxGeometry x="39.5" y="280" width="10" height="310" as="geometry" />
        </mxCell>
        <mxCell id="EvG-SNMMHzA-SjEUgjpf-15" value="Base de données" style="shape=umlLifeline;perimeter=lifelinePerimeter;whiteSpace=wrap;html=1;container=0;dropTarget=0;collapsible=0;recursiveResize=0;outlineConnect=0;portConstraint=eastwest;newEdgeStyle={&quot;edgeStyle&quot;:&quot;elbowEdgeStyle&quot;,&quot;elbow&quot;:&quot;vertical&quot;,&quot;curved&quot;:0,&quot;rounded&quot;:0};" vertex="1" parent="1">
          <mxGeometry x="610" y="40" width="100" height="720" as="geometry" />
        </mxCell>
        <mxCell id="EvG-SNMMHzA-SjEUgjpf-16" value="" style="html=1;points=[];perimeter=orthogonalPerimeter;outlineConnect=0;targetShapes=umlLifeline;portConstraint=eastwest;newEdgeStyle={&quot;edgeStyle&quot;:&quot;elbowEdgeStyle&quot;,&quot;elbow&quot;:&quot;vertical&quot;,&quot;curved&quot;:0,&quot;rounded&quot;:0};" vertex="1" parent="EvG-SNMMHzA-SjEUgjpf-15">
          <mxGeometry x="45" y="80" width="10" height="610" as="geometry" />
        </mxCell>
        <mxCell id="EvG-SNMMHzA-SjEUgjpf-21" value="Utilisateur" style="shape=umlActor;verticalLabelPosition=bottom;verticalAlign=top;html=1;outlineConnect=0;" vertex="1" parent="1">
          <mxGeometry x="-100" y="20" width="30" height="50" as="geometry" />
        </mxCell>
        <mxCell id="EvG-SNMMHzA-SjEUgjpf-24" value="" style="endArrow=none;dashed=1;html=1;rounded=0;" edge="1" parent="1" source="EvG-SNMMHzA-SjEUgjpf-6">
          <mxGeometry width="50" height="50" relative="1" as="geometry">
            <mxPoint x="-90" y="480" as="sourcePoint" />
            <mxPoint x="-90" y="110" as="targetPoint" />
          </mxGeometry>
        </mxCell>
        <mxCell id="EvG-SNMMHzA-SjEUgjpf-25" value="statuts utilisateur" style="html=1;verticalAlign=bottom;endArrow=block;edgeStyle=elbowEdgeStyle;elbow=vertical;curved=0;rounded=0;" edge="1" parent="1" source="EvG-SNMMHzA-SjEUgjpf-16">
          <mxGeometry relative="1" as="geometry">
            <mxPoint x="795" y="160" as="sourcePoint" />
            <Array as="points">
              <mxPoint x="550" y="160" />
            </Array>
            <mxPoint x="480" y="160" as="targetPoint" />
          </mxGeometry>
        </mxCell>
        <mxCell id="EvG-SNMMHzA-SjEUgjpf-27" value="tentative de connexion" style="html=1;verticalAlign=bottom;startArrow=oval;endArrow=block;startSize=8;edgeStyle=elbowEdgeStyle;elbow=vertical;curved=0;rounded=0;" edge="1" parent="1">
          <mxGeometry relative="1" as="geometry">
            <mxPoint x="-90" y="220" as="sourcePoint" />
            <mxPoint x="30" y="220" as="targetPoint" />
          </mxGeometry>
        </mxCell>
        <mxCell id="EvG-SNMMHzA-SjEUgjpf-28" value="vérification des données utilisateurs" style="html=1;verticalAlign=bottom;endArrow=block;edgeStyle=elbowEdgeStyle;elbow=vertical;curved=0;rounded=0;" edge="1" parent="1" source="aM9ryv3xv72pqoxQDRHE-1" target="EvG-SNMMHzA-SjEUgjpf-15">
          <mxGeometry relative="1" as="geometry">
            <mxPoint x="80" y="220" as="sourcePoint" />
            <Array as="points">
              <mxPoint x="175" y="220" />
            </Array>
            <mxPoint x="610" y="220" as="targetPoint" />
            <mxPoint as="offset" />
          </mxGeometry>
        </mxCell>
        <mxCell id="EvG-SNMMHzA-SjEUgjpf-30" value="statuts utilisateur" style="html=1;verticalAlign=bottom;endArrow=block;edgeStyle=elbowEdgeStyle;elbow=vertical;curved=0;rounded=0;" edge="1" parent="1" source="EvG-SNMMHzA-SjEUgjpf-15">
          <mxGeometry relative="1" as="geometry">
            <mxPoint x="610" y="280" as="sourcePoint" />
            <Array as="points">
              <mxPoint x="550" y="280" />
            </Array>
            <mxPoint x="480" y="280" as="targetPoint" />
          </mxGeometry>
        </mxCell>
        <mxCell id="EvG-SNMMHzA-SjEUgjpf-31" value="connexion établie ou utilisateur introuvable" style="html=1;verticalAlign=bottom;endArrow=block;edgeStyle=elbowEdgeStyle;elbow=vertical;curved=0;rounded=0;" edge="1" parent="1">
          <mxGeometry x="-0.001" relative="1" as="geometry">
            <mxPoint x="480" y="280" as="sourcePoint" />
            <Array as="points">
              <mxPoint x="190" y="280" />
            </Array>
            <mxPoint x="-90" y="280" as="targetPoint" />
            <mxPoint as="offset" />
          </mxGeometry>
        </mxCell>
        <mxCell id="EvG-SNMMHzA-SjEUgjpf-34" value="" style="endArrow=none;dashed=1;html=1;rounded=0;" edge="1" parent="1" target="EvG-SNMMHzA-SjEUgjpf-6">
          <mxGeometry width="50" height="50" relative="1" as="geometry">
            <mxPoint x="-90" y="480" as="sourcePoint" />
            <mxPoint x="-90" y="110" as="targetPoint" />
          </mxGeometry>
        </mxCell>
        <mxCell id="EvG-SNMMHzA-SjEUgjpf-6" value="" style="html=1;points=[];perimeter=orthogonalPerimeter;outlineConnect=0;targetShapes=umlLifeline;portConstraint=eastwest;newEdgeStyle={&quot;edgeStyle&quot;:&quot;elbowEdgeStyle&quot;,&quot;elbow&quot;:&quot;vertical&quot;,&quot;curved&quot;:0,&quot;rounded&quot;:0};" vertex="1" parent="1">
          <mxGeometry x="-100" y="100" width="10" height="750" as="geometry" />
        </mxCell>
        <mxCell id="aM9ryv3xv72pqoxQDRHE-3" value="tentative d&#39;inscription" style="html=1;verticalAlign=bottom;startArrow=oval;endArrow=block;startSize=8;edgeStyle=elbowEdgeStyle;elbow=vertical;curved=0;rounded=0;" parent="1" target="aM9ryv3xv72pqoxQDRHE-2" edge="1">
          <mxGeometry relative="1" as="geometry">
            <mxPoint x="-90" y="119.5" as="sourcePoint" />
            <mxPoint x="20" y="120" as="targetPoint" />
          </mxGeometry>
        </mxCell>
        <mxCell id="EvG-SNMMHzA-SjEUgjpf-38" value="selection du&amp;nbsp; repas" style="edgeLabel;html=1;align=center;verticalAlign=middle;resizable=0;points=[];" vertex="1" connectable="0" parent="1">
          <mxGeometry x="64.4969933823736" y="321.1624544455167" as="geometry" />
        </mxCell>
        <mxCell id="EvG-SNMMHzA-SjEUgjpf-44" value="" style="endArrow=classic;html=1;rounded=0;" edge="1" parent="1">
          <mxGeometry width="50" height="50" relative="1" as="geometry">
            <mxPoint x="-95.5" y="330" as="sourcePoint" />
            <mxPoint x="469" y="330" as="targetPoint" />
          </mxGeometry>
        </mxCell>
        <mxCell id="EvG-SNMMHzA-SjEUgjpf-45" value="" style="endArrow=classic;html=1;rounded=0;" edge="1" parent="1" source="EvG-SNMMHzA-SjEUgjpf-49">
          <mxGeometry width="50" height="50" relative="1" as="geometry">
            <mxPoint x="429" y="360" as="sourcePoint" />
            <mxPoint x="264.5" y="360" as="targetPoint" />
          </mxGeometry>
        </mxCell>
        <mxCell id="EvG-SNMMHzA-SjEUgjpf-46" value="ajout dans le panier" style="text;html=1;strokeColor=none;fillColor=none;align=center;verticalAlign=middle;whiteSpace=wrap;rounded=0;" vertex="1" parent="1">
          <mxGeometry x="284.5" y="340" width="110" height="25" as="geometry" />
        </mxCell>
        <mxCell id="EvG-SNMMHzA-SjEUgjpf-48" value="tentative de paiement" style="html=1;verticalAlign=bottom;startArrow=oval;endArrow=block;startSize=8;edgeStyle=elbowEdgeStyle;elbow=vertical;curved=0;rounded=0;" edge="1" parent="1">
          <mxGeometry relative="1" as="geometry">
            <mxPoint x="-95.5" y="400" as="sourcePoint" />
            <mxPoint x="264.5" y="400" as="targetPoint" />
          </mxGeometry>
        </mxCell>
        <mxCell id="EvG-SNMMHzA-SjEUgjpf-50" value="ajout des données de commande" style="html=1;verticalAlign=bottom;startArrow=oval;endArrow=block;startSize=8;edgeStyle=elbowEdgeStyle;elbow=vertical;curved=0;rounded=0;" edge="1" parent="1">
          <mxGeometry relative="1" as="geometry">
            <mxPoint x="474.5" y="400" as="sourcePoint" />
            <mxPoint x="654.5" y="400" as="targetPoint" />
          </mxGeometry>
        </mxCell>
        <mxCell id="EvG-SNMMHzA-SjEUgjpf-51" value="paiement accepté ou refusé" style="html=1;verticalAlign=bottom;startArrow=oval;endArrow=block;startSize=8;edgeStyle=elbowEdgeStyle;elbow=vertical;curved=0;rounded=0;" edge="1" parent="1">
          <mxGeometry relative="1" as="geometry">
            <mxPoint x="264" y="430" as="sourcePoint" />
            <mxPoint x="-100" y="430" as="targetPoint" />
            <Array as="points" />
          </mxGeometry>
        </mxCell>
        <mxCell id="EvG-SNMMHzA-SjEUgjpf-52" value="Recherche du livreur le plus proche" style="html=1;verticalAlign=bottom;startArrow=oval;endArrow=block;startSize=8;edgeStyle=elbowEdgeStyle;elbow=vertical;curved=0;rounded=0;" edge="1" parent="1" target="EvG-SNMMHzA-SjEUgjpf-49">
          <mxGeometry relative="1" as="geometry">
            <mxPoint x="264.5" y="469" as="sourcePoint" />
            <mxPoint x="439.5" y="469" as="targetPoint" />
          </mxGeometry>
        </mxCell>
        <mxCell id="EvG-SNMMHzA-SjEUgjpf-53" value="" style="endArrow=classic;html=1;rounded=0;" edge="1" parent="1">
          <mxGeometry width="50" height="50" relative="1" as="geometry">
            <mxPoint x="264" y="360" as="sourcePoint" />
            <mxPoint x="-95.5" y="360" as="targetPoint" />
          </mxGeometry>
        </mxCell>
        <mxCell id="EvG-SNMMHzA-SjEUgjpf-54" value="Sélection du repas réussie" style="text;html=1;strokeColor=none;fillColor=none;align=center;verticalAlign=middle;whiteSpace=wrap;rounded=0;" vertex="1" parent="1">
          <mxGeometry x="-5.5" y="337.5" width="180" height="30" as="geometry" />
        </mxCell>
        <mxCell id="EvG-SNMMHzA-SjEUgjpf-55" value="vérifications de paiement" style="html=1;verticalAlign=bottom;startArrow=oval;endArrow=block;startSize=8;edgeStyle=elbowEdgeStyle;elbow=vertical;curved=0;rounded=0;" edge="1" parent="1">
          <mxGeometry relative="1" as="geometry">
            <mxPoint x="264.5" y="400" as="sourcePoint" />
            <mxPoint x="469" y="400" as="targetPoint" />
          </mxGeometry>
        </mxCell>
        <mxCell id="EvG-SNMMHzA-SjEUgjpf-56" value="affichage de l&#39;état du paiement" style="html=1;verticalAlign=bottom;startArrow=oval;endArrow=block;startSize=8;edgeStyle=elbowEdgeStyle;elbow=vertical;curved=0;rounded=0;" edge="1" parent="1" source="EvG-SNMMHzA-SjEUgjpf-49">
          <mxGeometry relative="1" as="geometry">
            <mxPoint x="434.5" y="430" as="sourcePoint" />
            <mxPoint x="264" y="430" as="targetPoint" />
            <Array as="points" />
          </mxGeometry>
        </mxCell>
        <mxCell id="EvG-SNMMHzA-SjEUgjpf-57" value="Livreur trouvé" style="html=1;verticalAlign=bottom;startArrow=oval;endArrow=block;startSize=8;edgeStyle=elbowEdgeStyle;elbow=vertical;curved=0;rounded=0;" edge="1" parent="1">
          <mxGeometry relative="1" as="geometry">
            <mxPoint x="464.5" y="500" as="sourcePoint" />
            <mxPoint x="264" y="500" as="targetPoint" />
          </mxGeometry>
        </mxCell>
        <mxCell id="EvG-SNMMHzA-SjEUgjpf-58" value="confirmation de la livraison" style="html=1;verticalAlign=bottom;startArrow=oval;endArrow=block;startSize=8;edgeStyle=elbowEdgeStyle;elbow=vertical;curved=0;rounded=0;" edge="1" parent="1">
          <mxGeometry relative="1" as="geometry">
            <mxPoint x="259.5" y="500" as="sourcePoint" />
            <mxPoint x="-95.5" y="500" as="targetPoint" />
          </mxGeometry>
        </mxCell>
        <mxCell id="EvG-SNMMHzA-SjEUgjpf-59" value="" style="endArrow=classic;html=1;rounded=0;" edge="1" parent="1" target="EvG-SNMMHzA-SjEUgjpf-35">
          <mxGeometry width="50" height="50" relative="1" as="geometry">
            <mxPoint x="-90" y="560" as="sourcePoint" />
            <mxPoint x="260" y="560" as="targetPoint" />
          </mxGeometry>
        </mxCell>
        <mxCell id="EvG-SNMMHzA-SjEUgjpf-62" value="suivi de commande" style="text;html=1;strokeColor=none;fillColor=none;align=center;verticalAlign=middle;whiteSpace=wrap;rounded=0;" vertex="1" parent="1">
          <mxGeometry x="15" y="535" width="130" height="30" as="geometry" />
        </mxCell>
        <mxCell id="EvG-SNMMHzA-SjEUgjpf-64" value="affichage de l&#39;état de la livraison" style="html=1;verticalAlign=bottom;startArrow=oval;endArrow=block;startSize=8;edgeStyle=elbowEdgeStyle;elbow=vertical;curved=0;rounded=0;" edge="1" parent="1">
          <mxGeometry relative="1" as="geometry">
            <mxPoint x="470" y="590" as="sourcePoint" />
            <mxPoint x="274" y="590" as="targetPoint" />
          </mxGeometry>
        </mxCell>
        <mxCell id="EvG-SNMMHzA-SjEUgjpf-66" value="recherche de l&#39;état de la livraison" style="html=1;verticalAlign=bottom;startArrow=oval;endArrow=block;startSize=8;edgeStyle=elbowEdgeStyle;elbow=vertical;curved=0;rounded=0;" edge="1" parent="1" target="EvG-SNMMHzA-SjEUgjpf-11">
          <mxGeometry relative="1" as="geometry">
            <mxPoint x="270" y="560" as="sourcePoint" />
            <mxPoint x="445" y="560" as="targetPoint" />
          </mxGeometry>
        </mxCell>
        <mxCell id="EvG-SNMMHzA-SjEUgjpf-67" value="état de la livraison informé" style="html=1;verticalAlign=bottom;startArrow=oval;endArrow=block;startSize=8;edgeStyle=elbowEdgeStyle;elbow=vertical;curved=0;rounded=0;" edge="1" parent="1" source="EvG-SNMMHzA-SjEUgjpf-5">
          <mxGeometry relative="1" as="geometry">
            <mxPoint x="110.5" y="590" as="sourcePoint" />
            <mxPoint x="-90" y="590" as="targetPoint" />
          </mxGeometry>
        </mxCell>
        <mxCell id="EvG-SNMMHzA-SjEUgjpf-68" value="" style="endArrow=classic;html=1;rounded=0;" edge="1" parent="1" target="EvG-SNMMHzA-SjEUgjpf-5">
          <mxGeometry width="50" height="50" relative="1" as="geometry">
            <mxPoint x="250" y="590" as="sourcePoint" />
            <mxPoint x="300" y="540" as="targetPoint" />
          </mxGeometry>
        </mxCell>
        <mxCell id="EvG-SNMMHzA-SjEUgjpf-69" value="Livreur trouvé" style="html=1;verticalAlign=bottom;startArrow=oval;endArrow=block;startSize=8;edgeStyle=elbowEdgeStyle;elbow=vertical;curved=0;rounded=0;" edge="1" parent="1">
          <mxGeometry relative="1" as="geometry">
            <mxPoint x="487.5" y="920" as="sourcePoint" />
            <mxPoint x="287" y="920" as="targetPoint" />
          </mxGeometry>
        </mxCell>
        <mxCell id="EvG-SNMMHzA-SjEUgjpf-70" value="Livreur trouvé" style="html=1;verticalAlign=bottom;startArrow=oval;endArrow=block;startSize=8;edgeStyle=elbowEdgeStyle;elbow=vertical;curved=0;rounded=0;" edge="1" parent="1" source="EvG-SNMMHzA-SjEUgjpf-6" target="EvG-SNMMHzA-SjEUgjpf-5">
          <mxGeometry relative="1" as="geometry">
            <mxPoint x="332.5" y="960" as="sourcePoint" />
            <mxPoint x="132" y="960" as="targetPoint" />
          </mxGeometry>
        </mxCell>
        <mxCell id="EvG-SNMMHzA-SjEUgjpf-71" value="Livreur trouvé" style="html=1;verticalAlign=bottom;startArrow=oval;endArrow=block;startSize=8;edgeStyle=elbowEdgeStyle;elbow=vertical;curved=0;rounded=0;" edge="1" parent="1">
          <mxGeometry relative="1" as="geometry">
            <mxPoint x="712.5" y="880" as="sourcePoint" />
            <mxPoint x="512" y="880" as="targetPoint" />
          </mxGeometry>
        </mxCell>
        <mxCell id="EvG-SNMMHzA-SjEUgjpf-72" value="Livreur trouvé" style="html=1;verticalAlign=bottom;startArrow=oval;endArrow=block;startSize=8;edgeStyle=elbowEdgeStyle;elbow=vertical;curved=0;rounded=0;" edge="1" parent="1">
          <mxGeometry relative="1" as="geometry">
            <mxPoint x="717.5" y="910" as="sourcePoint" />
            <mxPoint x="517" y="910" as="targetPoint" />
          </mxGeometry>
        </mxCell>
        <mxCell id="EvG-SNMMHzA-SjEUgjpf-73" value="creation, suppresion, edition de commandes" style="html=1;verticalAlign=bottom;startArrow=oval;endArrow=block;startSize=8;edgeStyle=elbowEdgeStyle;elbow=vertical;curved=0;rounded=0;" edge="1" parent="1" target="EvG-SNMMHzA-SjEUgjpf-85">
          <mxGeometry relative="1" as="geometry">
            <mxPoint x="-230" y="760" as="sourcePoint" />
            <mxPoint x="269.5" y="760" as="targetPoint" />
          </mxGeometry>
        </mxCell>
        <mxCell id="EvG-SNMMHzA-SjEUgjpf-74" value="Livreur trouvé" style="html=1;verticalAlign=bottom;startArrow=oval;endArrow=block;startSize=8;edgeStyle=elbowEdgeStyle;elbow=vertical;curved=0;rounded=0;" edge="1" parent="1">
          <mxGeometry relative="1" as="geometry">
            <mxPoint x="637.5" y="940" as="sourcePoint" />
            <mxPoint x="437" y="940" as="targetPoint" />
          </mxGeometry>
        </mxCell>
        <mxCell id="EvG-SNMMHzA-SjEUgjpf-75" value="Livreur trouvé" style="html=1;verticalAlign=bottom;startArrow=oval;endArrow=block;startSize=8;edgeStyle=elbowEdgeStyle;elbow=vertical;curved=0;rounded=0;" edge="1" parent="1">
          <mxGeometry relative="1" as="geometry">
            <mxPoint x="562.25" y="900" as="sourcePoint" />
            <mxPoint x="361.75" y="900" as="targetPoint" />
          </mxGeometry>
        </mxCell>
        <mxCell id="EvG-SNMMHzA-SjEUgjpf-76" value="parrainage d&#39;un ami" style="html=1;verticalAlign=bottom;startArrow=oval;endArrow=block;startSize=8;edgeStyle=elbowEdgeStyle;elbow=vertical;curved=0;rounded=0;" edge="1" parent="1" target="EvG-SNMMHzA-SjEUgjpf-5">
          <mxGeometry relative="1" as="geometry">
            <mxPoint x="-90" y="670" as="sourcePoint" />
            <mxPoint x="79.5" y="670" as="targetPoint" />
          </mxGeometry>
        </mxCell>
        <mxCell id="EvG-SNMMHzA-SjEUgjpf-78" value="statuts utilisateur" style="html=1;verticalAlign=bottom;endArrow=block;edgeStyle=elbowEdgeStyle;elbow=vertical;curved=0;rounded=0;" edge="1" parent="1">
          <mxGeometry relative="1" as="geometry">
            <mxPoint x="655" y="700" as="sourcePoint" />
            <Array as="points">
              <mxPoint x="550" y="700" />
            </Array>
            <mxPoint x="480" y="700" as="targetPoint" />
          </mxGeometry>
        </mxCell>
        <mxCell id="EvG-SNMMHzA-SjEUgjpf-79" value="Restaurateur" style="shape=umlActor;verticalLabelPosition=bottom;verticalAlign=top;html=1;outlineConnect=0;" vertex="1" parent="1">
          <mxGeometry x="-260" y="20" width="30" height="55" as="geometry" />
        </mxCell>
        <mxCell id="EvG-SNMMHzA-SjEUgjpf-82" value="" style="endArrow=none;dashed=1;html=1;rounded=0;" edge="1" parent="1" source="EvG-SNMMHzA-SjEUgjpf-83">
          <mxGeometry width="50" height="50" relative="1" as="geometry">
            <mxPoint x="-240" y="981.60009765625" as="sourcePoint" />
            <mxPoint x="-240" y="100" as="targetPoint" />
          </mxGeometry>
        </mxCell>
        <mxCell id="EvG-SNMMHzA-SjEUgjpf-84" value="" style="endArrow=none;dashed=1;html=1;rounded=0;" edge="1" parent="1" target="EvG-SNMMHzA-SjEUgjpf-83">
          <mxGeometry width="50" height="50" relative="1" as="geometry">
            <mxPoint x="-240" y="981.60009765625" as="sourcePoint" />
            <mxPoint x="-240" y="100" as="targetPoint" />
          </mxGeometry>
        </mxCell>
        <mxCell id="EvG-SNMMHzA-SjEUgjpf-83" value="" style="html=1;points=[];perimeter=orthogonalPerimeter;outlineConnect=0;targetShapes=umlLifeline;portConstraint=eastwest;newEdgeStyle={&quot;edgeStyle&quot;:&quot;elbowEdgeStyle&quot;,&quot;elbow&quot;:&quot;vertical&quot;,&quot;curved&quot;:0,&quot;rounded&quot;:0};" vertex="1" parent="1">
          <mxGeometry x="-240" y="100" width="10" height="930" as="geometry" />
        </mxCell>
        <mxCell id="EvG-SNMMHzA-SjEUgjpf-85" value="Page restaurateur" style="shape=umlLifeline;perimeter=lifelinePerimeter;whiteSpace=wrap;html=1;container=0;dropTarget=0;collapsible=0;recursiveResize=0;outlineConnect=0;portConstraint=eastwest;newEdgeStyle={&quot;edgeStyle&quot;:&quot;elbowEdgeStyle&quot;,&quot;elbow&quot;:&quot;vertical&quot;,&quot;curved&quot;:0,&quot;rounded&quot;:0};" vertex="1" parent="1">
          <mxGeometry x="100" y="40" width="100" height="800" as="geometry" />
        </mxCell>
        <mxCell id="EvG-SNMMHzA-SjEUgjpf-87" value="" style="html=1;points=[];perimeter=orthogonalPerimeter;outlineConnect=0;targetShapes=umlLifeline;portConstraint=eastwest;newEdgeStyle={&quot;edgeStyle&quot;:&quot;elbowEdgeStyle&quot;,&quot;elbow&quot;:&quot;vertical&quot;,&quot;curved&quot;:0,&quot;rounded&quot;:0};" vertex="1" parent="EvG-SNMMHzA-SjEUgjpf-85">
          <mxGeometry x="45" y="710" width="10" height="80" as="geometry" />
        </mxCell>
      </root>
    </mxGraphModel>
  </diagram>
</mxfile>
